<svg width="12" height="11" viewBox="0 0 12 11" fill="none" xmlns="http://www.w3.org/2000/svg">
<path d="M6.19211 4.34511V6.56544H9.21176C8.7677 7.76441 7.61313 8.56373 6.28093 8.56373C4.54908 8.56373 3.17247 7.18713 3.17247 5.45527C3.17247 3.72342 4.54908 2.34682 6.28093 2.34682C6.94703 2.34682 7.56872 2.56885 8.1016 2.9241L8.27922 3.05732L9.61142 1.32547L9.43379 1.19225C8.50126 0.52615 7.4355 0.170898 6.28093 0.170898C3.3501 0.170898 0.952148 2.56885 0.952148 5.49968C0.952148 8.43051 3.3501 10.8285 6.28093 10.8285C9.21176 10.8285 11.6097 8.43051 11.6097 5.49968V4.38952H6.19211V4.34511Z" fill="white"/>
</svg>
