<svg width="12" height="14" viewBox="0 0 12 14" fill="none" xmlns="http://www.w3.org/2000/svg">
<path d="M9.2891 0.915591C7.15113 0.507303 4.93092 0.507303 2.79295 0.915591C1.84731 1.11974 0.654975 2.26294 0.4494 3.16118C0.0793665 4.91682 0.0793665 6.71329 0.4494 8.46893C0.69609 9.36716 1.88842 10.5104 2.79295 10.7145C2.83406 10.7145 2.87518 10.7553 2.87518 10.7962V13.3684C2.87518 13.4909 3.03964 13.5725 3.12187 13.45L4.35531 12.1844C4.35531 12.1844 5.34207 11.1636 5.50653 11.0003C5.50653 11.0003 5.54765 10.9595 5.58876 10.9595C6.82221 11.0003 8.09677 10.8778 9.33021 10.6737C10.2759 10.4695 11.4682 9.32633 11.6738 8.4281C12.0438 6.67246 12.0438 4.87599 11.6738 3.12035C11.4271 2.26294 10.2347 1.11974 9.2891 0.915591ZM9.33021 8.59141C9.12464 8.9997 8.87795 9.32633 8.4668 9.53048C8.34346 9.57131 8.22011 9.61213 8.09677 9.65296C7.93231 9.61213 7.80896 9.57131 7.68562 9.53048C6.36994 8.9997 5.1365 8.26478 4.14974 7.20323C3.61525 6.5908 3.16298 5.89671 2.79295 5.16179C2.62849 4.79433 2.46403 4.4677 2.34068 4.10024C2.21734 3.77361 2.42291 3.44698 2.62849 3.20201C2.83406 2.95703 3.08075 2.79372 3.36856 2.67123C3.57413 2.54874 3.77971 2.6304 3.94417 2.79372C4.27308 3.20201 4.602 3.61029 4.84869 4.05941C5.01315 4.34521 4.97204 4.67184 4.68423 4.87599C4.602 4.91682 4.56089 4.95765 4.47866 5.0393C4.43754 5.08013 4.35531 5.12096 4.3142 5.20262C4.23197 5.32511 4.23197 5.44759 4.27308 5.57008C4.602 6.50914 5.21872 7.24406 6.16437 7.65235C6.32883 7.73401 6.45217 7.77484 6.65775 7.77484C6.94555 7.73401 7.06889 7.40738 7.27447 7.24406C7.48004 7.08075 7.72673 7.08075 7.97342 7.20323C8.179 7.32572 8.38457 7.48903 8.63126 7.65235C8.83683 7.81566 9.04241 7.93815 9.24798 8.10147C9.37133 8.18313 9.41244 8.38727 9.33021 8.59141ZM7.60339 5.52925C7.52116 5.52925 7.56227 5.52925 7.60339 5.52925C7.43893 5.52925 7.39781 5.44759 7.3567 5.32511C7.3567 5.24345 7.3567 5.12096 7.31558 5.0393C7.27447 4.87599 7.19224 4.71267 7.02778 4.59019C6.94555 4.54936 6.86332 4.50853 6.78109 4.4677C6.65774 4.42687 6.57552 4.42687 6.45217 4.42687C6.32883 4.38604 6.28771 4.30439 6.28771 4.1819C6.28771 4.10024 6.41106 4.01858 6.49329 4.01858C7.15112 4.05941 7.6445 4.42687 7.72673 5.20262C7.72673 5.24345 7.72673 5.32511 7.72673 5.36593C7.72673 5.44759 7.68562 5.52925 7.60339 5.52925ZM7.19224 3.73278C6.98666 3.65112 6.78109 3.56947 6.5344 3.52864C6.45217 3.52864 6.32883 3.48781 6.2466 3.48781C6.12325 3.48781 6.04102 3.40615 6.08214 3.28366C6.08214 3.16118 6.16437 3.07952 6.28771 3.12035C6.69886 3.16118 7.0689 3.24284 7.43893 3.40615C8.179 3.77361 8.59015 4.38604 8.71349 5.20262C8.71349 5.24345 8.71349 5.28428 8.71349 5.32511C8.71349 5.40676 8.71349 5.48842 8.71349 5.61091C8.71349 5.65174 8.71349 5.69257 8.71349 5.7334C8.67238 5.89671 8.38457 5.93754 8.34346 5.7334C8.34346 5.69257 8.30234 5.61091 8.30234 5.57008C8.30234 5.20262 8.22011 4.83516 8.05565 4.50853C7.80896 4.14107 7.52116 3.8961 7.19224 3.73278ZM9.41244 6.18251C9.2891 6.18251 9.20687 6.06003 9.20687 5.93754C9.20687 5.69257 9.16575 5.44759 9.12464 5.20262C8.96018 3.8961 7.89119 2.83455 6.61663 2.6304C6.41106 2.58957 6.20548 2.58957 6.04102 2.54875C5.91768 2.54875 5.75322 2.54875 5.7121 2.38543C5.67099 2.26294 5.79433 2.14046 5.91768 2.14046C5.95879 2.14046 5.99991 2.14046 5.99991 2.14046C7.68562 2.18129 6.08214 2.14046 5.99991 2.14046C7.72673 2.18129 9.16575 3.32449 9.45356 5.0393C9.49467 5.32511 9.53579 5.61091 9.53579 5.93754C9.61802 6.06003 9.53579 6.18251 9.41244 6.18251Z" fill="white"/>
</svg>
