<svg width="13" height="12" viewBox="0 0 13 12" fill="none" xmlns="http://www.w3.org/2000/svg">
<path d="M10.3368 1.76666C9.22867 0.662339 7.75112 0.0488281 6.19148 0.0488281C2.94906 0.0488281 0.322293 2.66647 0.322293 5.89763C0.322293 6.92015 0.609596 7.94267 1.10211 8.80158L0.28125 11.8282L3.40054 11.0102C4.26245 11.4601 5.20644 11.7055 6.19148 11.7055C9.43389 11.7055 12.0607 9.08789 12.0607 5.85673C12.0196 4.34341 11.445 2.87098 10.3368 1.76666ZM9.02346 7.98357C8.90033 8.31078 8.32572 8.63798 8.03842 8.67888C7.79216 8.71978 7.46382 8.71978 7.13547 8.63798C6.93026 8.55618 6.64295 8.47438 6.31461 8.31078C4.83705 7.69727 3.89306 6.22484 3.81097 6.10214C3.72888 6.02034 3.19532 5.32502 3.19532 4.58881C3.19532 3.8526 3.56471 3.52539 3.68784 3.36179C3.81097 3.19818 3.97514 3.19818 4.09827 3.19818C4.18036 3.19818 4.30349 3.19818 4.38557 3.19818C4.46766 3.19818 4.59079 3.15728 4.71392 3.44359C4.83705 3.72989 5.12435 4.46611 5.16539 4.50701C5.20644 4.58881 5.20644 4.67061 5.16539 4.75241C5.12435 4.83421 5.08331 4.91601 5.00122 4.99782C4.91914 5.07962 4.83705 5.20232 4.79601 5.24322C4.71392 5.32502 4.63183 5.40682 4.71392 5.52953C4.79601 5.69313 5.08331 6.14304 5.53478 6.55204C6.10939 7.04285 6.56087 7.20646 6.72504 7.28826C6.88921 7.37006 6.9713 7.32916 7.05338 7.24736C7.13547 7.16556 7.42278 6.83835 7.50486 6.67475C7.58695 6.51114 7.71008 6.55204 7.83321 6.59295C7.95634 6.63385 8.69511 7.00195 8.81824 7.08375C8.98242 7.16556 9.0645 7.20646 9.10555 7.24736C9.14659 7.37006 9.14659 7.65636 9.02346 7.98357Z" fill="white"/>
</svg>
